<svg id="" xmlns="http://www.w3.org/2000/svg" viewBox="0 0 89.41 89.41"><defs><style>.cls-1{fill:none;}.cls-2{fill:#932b30;}</style></defs><title>close-btn</title><line class="cls-1" x1="3.46" y1="3.46" x2="85.96" y2="85.96"/><line class="cls-1" x1="33.21" y1="35.21" x2="56.21" y2="54.21"/><line class="cls-1" x1="31.21" y1="43.21" x2="58.21" y2="46.21"/><path class="cls-2" d="M88,88a5,5,0,0,1-7,0L1.47,8.49a5,5,0,1,1,7-7L88,80.92A5,5,0,0,1,88,88Z"/><path class="cls-2" d="M1.44,88a5,5,0,0,1,0-7L80.92,1.47a5,5,0,1,1,7,7L8.49,88A5,5,0,0,1,1.44,88Z"/></svg>